<svg xmlns="http://www.w3.org/2000/svg" viewBox="0 0 1200 630" role="img">
  <defs>
    <linearGradient id="a1" x1="0%" y1="0%" x2="100%" y2="100%">
      <stop offset="0%" stop-color="#22d3ee"/>
      <stop offset="100%" stop-color="#a78bfa"/>
    </linearGradient>
  </defs>
  <rect width="100%" height="100%" fill="#0b1020"/>
  <rect x="20" y="20" width="1160" height="590" rx="24" fill="url(#a1)"/>
  <g opacity="0.2">
    <rect x="140" y="120" width="920" height="380" rx="18" fill="#0b1020"/>
  </g>
  <g transform="translate(180 190)">
    <rect x="0" y="40" width="840" height="12" rx="6" fill="#ffffff22"/>
    <rect x="0" y="80" width="760" height="12" rx="6" fill="#ffffff22"/>
    <rect x="0" y="120" width="680" height="12" rx="6" fill="#ffffff22"/>
    <rect x="0" y="160" width="540" height="12" rx="6" fill="#ffffff22"/>
    <g transform="translate(0 -20)">
      <rect x="0" y="0" width="220" height="28" rx="8" fill="#0ea5e9"/>
      <rect x="240" y="0" width="120" height="28" rx="8" fill="#22d3ee"/>
      <rect x="370" y="0" width="160" height="28" rx="8" fill="#a78bfa"/>
    </g>
  </g>
  <g transform="translate(160 460)">
    <rect x="0" y="0" width="880" height="36" rx="10" fill="#ffffff22"/>
    <rect x="12" y="8" width="300" height="20" rx="10" fill="#ffffff55"/>
  </g>
  
</svg>
