<svg xmlns="http://www.w3.org/2000/svg" viewBox="0 0 1200 630" role="img">
  <defs>
    <linearGradient id="c1" x1="0%" y1="0%" x2="100%" y2="100%">
      <stop offset="0%" stop-color="#22d3ee"/>
      <stop offset="100%" stop-color="#06b6d4"/>
    </linearGradient>
    <linearGradient id="c2" x1="0%" y1="0%" x2="0%" y2="100%">
      <stop offset="0%" stop-color="#ffffff22"/>
      <stop offset="100%" stop-color="#ffffff05"/>
    </linearGradient>
  </defs>
  <rect width="100%" height="100%" fill="#0b1020"/>
  <rect x="20" y="20" width="1160" height="590" rx="24" fill="#0ea5e9"/>
  <g opacity="0.15">
    <circle cx="1040" cy="140" r="120" fill="#22d3ee"/>
    <circle cx="220" cy="480" r="160" fill="#22d3ee"/>
  </g>
  <g>
    <rect x="140" y="120" width="920" height="380" rx="18" fill="#0b1020" fill-opacity="0.9" stroke="#ffffff22"/>
    <g transform="translate(180 170)">
      <rect x="0" y="0" width="280" height="220" rx="12" fill="#1f2937" stroke="#ffffff18"/>
      <g transform="translate(24 24)">
        <circle cx="24" cy="24" r="16" fill="#34d399"/>
        <rect x="60" y="12" width="140" height="20" rx="10" fill="#ffffff22"/>
        <rect x="60" y="42" width="110" height="20" rx="10" fill="#ffffff14"/>
      </g>
      <g transform="translate(24 90)">
        <rect x="0" y="0" width="180" height="18" rx="9" fill="#10b981"/>
        <rect x="0" y="30" width="220" height="18" rx="9" fill="#374151"/>
      </g>
    </g>
    <g transform="translate(500 170)">
      <rect x="0" y="0" width="520" height="20" rx="10" fill="#ffffff22"/>
      <rect x="0" y="36" width="320" height="20" rx="10" fill="#ffffff22"/>
      <rect x="0" y="72" width="380" height="20" rx="10" fill="#ffffff22"/>
      <rect x="0" y="108" width="460" height="20" rx="10" fill="#ffffff22"/>
      <rect x="0" y="180" width="360" height="48" rx="12" fill="#22d3ee"/>
    </g>
  </g>
  
</svg>
