<svg xmlns="http://www.w3.org/2000/svg" viewBox="0 0 1200 630" role="img">
  <defs>
    <linearGradient id="g1" x1="0%" y1="0%" x2="100%" y2="100%">
      <stop offset="0%" stop-color="#0ea5e9"/>
      <stop offset="100%" stop-color="#8b5cf6"/>
    </linearGradient>
    <linearGradient id="g2" x1="0%" y1="0%" x2="0%" y2="100%">
      <stop offset="0%" stop-color="#ffffff22"/>
      <stop offset="100%" stop-color="#ffffff05"/>
    </linearGradient>
    <filter id="blur" x="-20%" y="-20%" width="140%" height="140%">
      <feGaussianBlur stdDeviation="24"/>
    </filter>
  </defs>
  <rect width="100%" height="100%" fill="#0b1020"/>
  <rect x="20" y="20" width="1160" height="590" rx="24" fill="url(#g1)"/>
  <g opacity="0.25" filter="url(#blur)">
    <circle cx="300" cy="200" r="140" fill="#22d3ee"/>
    <circle cx="980" cy="420" r="160" fill="#a78bfa"/>
    <circle cx="760" cy="180" r="110" fill="#38bdf8"/>
  </g>
  <g>
    <rect x="140" y="160" width="920" height="320" rx="16" fill="#0b1020" fill-opacity="0.85" stroke="#ffffff22"/>
    <g transform="translate(190 210)">
      <rect x="0" y="0" width="120" height="70" rx="12" fill="#10b981"/>
      <path d="M30 25h60v8H30zM30 45h50v8H30z" fill="#0b1020" opacity="0.9"/>
      <g transform="translate(170 0)">
        <rect x="0" y="0" width="680" height="14" rx="7" fill="#ffffff22"/>
        <rect x="0" y="26" width="520" height="14" rx="7" fill="#ffffff22"/>
        <rect x="0" y="52" width="460" height="14" rx="7" fill="#ffffff22"/>
      </g>
    </g>
    <g transform="translate(190 305)">
      <rect x="0" y="0" width="860" height="14" rx="7" fill="#ffffff22"/>
      <rect x="0" y="26" width="720" height="14" rx="7" fill="#ffffff22"/>
      <rect x="0" y="52" width="520" height="14" rx="7" fill="#ffffff22"/>
    </g>
  </g>
  <g transform="translate(120 80)">
    <rect x="0" y="0" width="260" height="48" rx="12" fill="#ffffff18"/>
    <circle cx="24" cy="24" r="8" fill="#22d3ee"/>
    <circle cx="48" cy="24" r="8" fill="#f59e0b"/>
    <circle cx="72" cy="24" r="8" fill="#ef4444"/>
  </g>
  
</svg>
